<svg id="Layer_1" data-name="Layer 1" xmlns="http://www.w3.org/2000/svg" viewBox="0 0 1869.33 1051.5"><defs><style>.cls-1{fill:#fff;}</style></defs><path class="cls-1" d="M0,1051.5V0H1869.33V1051.5ZM229.79,573.32c-.1,2.35-.53,3.68-.15,4.69,1.87,4.86,3.35,10,6.11,14.37A195.28,195.28,0,0,0,252,614.92c12.45,14.5,26.87,26.92,44.59,34.51,6.83,2.92,13.25,7.74,21.32,7.4a9.41,9.41,0,0,1,2.3.69c6.78,1.62,13.56,4.55,20.34,4.54,12.72,0,25.4,1.47,38.32-1.92,9.68-2.54,19.48-4.41,28.54-8.79a173.48,173.48,0,0,0,18-9.81,164.16,164.16,0,0,0,19.4-14c8.72-7.54,14.92-17.22,21.61-26.58,5.35-7.48,8.43-15.81,12.74-23.64a3.83,3.83,0,0,0-.92-3.63c-9.75-6.06-19.27-12.64-29.57-17.6-9.7-4.67-17.38-11.88-26.1-17.74a32.12,32.12,0,0,1-4.42-3.75c-5.3-5.2-11.11-10-15.64-15.82-3.63-4.65-5.63-10.54-8.46-15.82-2.3-4.28-4.58-8.58-7.19-12.67-2.87-4.5-6.11-8.76-10-14.33-2.76,6.9-4.88,12.48-7.22,18s-4.69,11.05-7.52,16.31c-1.73,3.21-2.15,5.93.08,8.86,8.71,11.44,21.26,17.49,33.6,23.8,6,3.05,12.11,5.68,18,8.82,1.37.73,3.18,3.25,2.81,4.1-.87,2-2.69,4.57-4.55,5-2.61.57-5.62-.53-8.42-1.1-1.84-.38-3.61-1.14-5.42-1.66-6-1.73-12-3.49-18-5.1a30.61,30.61,0,0,0-4.92-.53c0,.49-.06,1-.1,1.46,8.65,7.35,17.39,14.6,25.93,22.08,5.34,4.68,10.46,9.62,15.5,14.62,1,.95,1.08,2.73,1.59,4.13-1.38,0-3,.53-4.1,0-9.07-4.57-18.36-8.83-26.95-14.19a306.12,306.12,0,0,1-28.54-20.25c-9.27-7.38-18-15.44-26.66-23.57-7.33-6.89-14.07-14.28-16.34-24.7-.52-2.39-2.61-4.44-4.47-7.44-.89,2.5-1.2,4.26-2.07,5.67-6.27,10.11-12.82,20-18.89,30.27-1.85,3.11-4.29,7.56-3.34,10.33,2.82,8.28,7.25,16,10.88,24,.47,1-.1,2.54-.22,4.35-8.34-5.7-16-10.82-23.51-16.11-4.43-3.1-8.88-2.36-12.07-1.65.11,10.91.34,20.84.24,30.77,0,2.77-2.29,3-4.23,1.74-3.82-2.57-7.46-5.4-11.17-8.13C241.46,581.93,236.2,578,229.79,573.32Zm204.67-92.46c17.2,17.4,31.48,38,53.48,51.62.31-2.38.71-3.65.6-4.87q-1.17-12.51-2.54-25a14.17,14.17,0,0,0-.93-3.21c-1.56-4.26-4-8.39-4.57-12.77-1.45-11.64-8.52-20.53-13.89-30.2a66.29,66.29,0,0,0-10.87-14.52c-8.61-8.62-17-18-27.06-24.52-9.75-6.31-19.71-13.23-31.88-15.31-4.76-.82-9.08-4.19-13.84-5.07a175.07,175.07,0,0,0-25.31-2.85c-5.72-.23-11.49,1.12-17.24,1.69-5,.49-10.09.36-14.92,1.45-6.31,1.42-12.44,3.7-18.59,5.74a46.26,46.26,0,0,0-8.06,3.31c-4.13,2.33-7.83,5.5-12.09,7.5-10.83,5.08-19.91,12.6-27.91,21.09-8.38,8.9-16.59,18.17-21.39,29.81-3.44,8.32-7.33,16.44-10.82,24.74-1.35,3.23-2.84,6.65-3.07,10.06-1,14.19-1.67,28.4-2,42.62-.09,3.93,1.51,7.91,2.54,12.88,5.62-7.16,10.4-13.14,15.06-19.19,5.82-7.55,11.66-14.74,21.83-17s18.2-8.11,24.7-16.48c5.62-7.24,12.08-13.84,18.41-20.51.72-.76,3.71-.75,4.35,0,4.56,5.38,8.73,11.1,13.18,16.59,1,1.22,3.16,3,3.85,2.7,4.95-2.45,10-5,14.31-8.33,2.93-2.28,4.61-6.11,7.09-9,5.54-6.5,11.2-12.91,16.89-19.29a132.54,132.54,0,0,1,9.7-10.12c1-.89,3.92-1.27,4.55-.59,8.41,9.11,16.4,18.61,24.86,27.66,3.29,3.51,5.57,9.92,12,7.86S427.46,483.94,434.46,480.86Zm1050.85,37.8,1.85.38a41.67,41.67,0,0,1,.55,4.81q0,36,0,72c0,6.79,3.34,10,10,10.06h8.76c6.86,0,10.35-3.25,10.36-10.11q.09-58.83,0-117.66c0-7.34-4.82-12.08-12.1-12.23-2.6-.05-5.23.29-7.78-.05a9.62,9.62,0,0,0-9.34,3.88c-4.13,5.09-8.27,10.19-12.19,15.45-4.19,5.63-8.06,11.51-12.2,17.19-3.74,5.13-7.61,10.17-11.5,15.19-2,2.6-4.12,2.85-6.28,0-4-5.36-8.21-10.61-12.19-16-7.21-9.79-14.22-19.74-21.56-29.44-1.34-1.77-3.86-2.63-5.77-4-5.27-3.78-11.3-1.87-17-2.09-4.16-.15-9,5.57-9,9.82q0,60.29,0,120.57c0,6,3.71,9.48,9.68,9.52,2.6,0,5.19,0,7.78,0,8,0,10.75-2.69,10.76-10.71q0-36.46,0-72.93c0-1.21.15-2.43.23-3.64l1.46-.92c2.33,2.81,4.72,5.58,7,8.44,8.79,11.06,17.53,22.18,26.36,33.22,1.74,2.19,8.63,2.63,10.34.6,4.22-5,8.39-10.1,12.36-15.32C1472.5,536,1478.87,527.31,1485.31,518.66Zm-194.62,34a89.78,89.78,0,0,0,8.37-4.87,42.14,42.14,0,0,0,15.89-22.5c4.67-14.88,1.31-28.16-6.86-40.2-10-14.7-26.27-17.93-42.39-18.9-18.25-1.09-36.62-.26-54.94-.21-4.78,0-10.09,5.13-10.09,9.79q0,60.76,0,121.54c0,5.74,3,8.57,8.64,8.58h8.27c8.62,0,11.24-2.61,11.22-11.21,0-10.37.14-20.75-.08-31.11-.09-4,1.15-5.64,5.21-5.57,8.42.15,16.86-.09,25.28.16a6.62,6.62,0,0,1,4.46,2.58c2.74,3.89,5,8.12,7.55,12.17,6.45,10.26,12.9,20.53,19.49,30.71a5,5,0,0,0,3.44,2.09c6.64.24,13.3.4,19.93.13,4.71-.18,6.92-5.42,4.38-9.43-3.57-5.64-7-11.37-10.57-17C1302.43,570.78,1296.86,562.22,1290.69,552.64Zm256.17-16.19h.06c0,20.1,0,40.2,0,60.3,0,6.4,2.51,9.12,8,9.12q44.76,0,89.52,0c4.53,0,7.22-2.55,7.36-7.06.11-3.73,0-7.46,0-11.19,0-6.28-2.46-8.69-8.81-8.69-21.24,0-42.49-.07-63.73.09-3.77,0-5.29-1-5.16-4.91.23-6.47.22-13,0-19.45-.13-4.07,1.48-5.25,5.47-5.2,15.41.21,30.81.1,46.22.09,3.4,0,6.81,0,10.21-.11,4.38-.17,7-2.36,7.15-6.91.14-3.88.31-7.77.21-11.66-.16-5.91-3.17-8.63-9.23-8.63-18.33,0-36.65-.09-55,.1-3.87,0-5.2-1.23-5.06-5,.21-5.83.19-11.68,0-17.51-.11-3.75,1.21-5.09,5.09-5.05,20.27.17,40.55.07,60.82.1,8.58,0,11.77-3.11,11.78-11.57,0-3.24-.08-6.49,0-9.73.07-2.73-.64-4.75-3.64-5.41-3.22-.7-6.41-2.17-9.63-2.19-26.43-.18-52.86-.09-79.3-.11-9.47,0-12.43,2.73-12.46,12.22C1546.8,497.54,1546.86,517,1546.86,536.45Zm-439,72.31c10.13.63,19.23-1.86,28.62-5.37,9.1-3.41,15.23-10.16,22.73-15.3,2.71-1.86,3.72-6.06,6.28-8.33,6.52-5.76,7.59-14.24,10.89-21.45,2.57-5.61,2.26-12.55,3.11-18.92a6.9,6.9,0,0,0-.44-3.81c-3.72-7.12-.3-15.71-5-22.75-2-3-1.88-7.51-3.92-10.51-6.84-10.07-14.06-19.87-25.44-25.55-8.06-4-15.64-8.43-25.3-8.65-7.08-.17-14-1.55-21.14.22-6,1.49-12.55,1.33-18,3.84a85.06,85.06,0,0,0-20,13.1,66.78,66.78,0,0,0-17.5,25.56c-1.58,3.93-3.1,8.17-3.3,12.34-.47,10.08-.16,20.21-.14,30.31a7.44,7.44,0,0,0,.22,2.89q4.2,9.43,8.59,18.79c4.85,10.32,13.16,18,22.47,23.43C1081.81,605.2,1094.21,610.25,1107.81,608.76ZM922.62,535.91q0,30.89,0,61.77c0,5.52,2.76,8.2,8.25,8.2h10.71c5.41,0,8-2.47,8-7.92,0-13.62.14-27.24-.05-40.86-.06-4.09,1.34-5.2,5.36-5.15,17.84.21,35.68.06,53.52.15,3.51,0,6.54-.52,7.87-4.19a25.41,25.41,0,0,0,2-7.21c.76-15-.7-16.07-15.41-15.8-15.24.28-30.49.08-45.73.07-6.65,0-7.5-.88-7.52-7.64,0-6,.1-12,0-18-.08-3.53,1.2-4.8,4.87-4.77,19.94.17,39.89,0,59.84.25,4.7.06,7.76-1.62,10.89-4.87,3.5-3.62,1.48-7.67,1.94-11.48.94-7.7-4.56-12.23-11.78-12.32-27.57-.34-55.14-.22-82.71-.1-6.9,0-10,3.58-10,10.53Q922.6,506.24,922.62,535.91Zm-101.54,12.7c0-16.21.1-32.42-.07-48.63,0-4.25,1.39-5.66,5.67-5.51,9.23.32,18.49.31,27.72.07a14.92,14.92,0,0,0,7-2.37c4.42-2.69,4.13-7.21,4.52-11.83.84-9.85-5.26-14.28-14.56-14.28-30.32,0-60.65,0-91,.09a13.49,13.49,0,0,0-5.35,1.53c-5.92,2.79-5.93,8.06-5.79,13.62.24,9.1,4.45,13.36,13.73,13.32,8.11,0,16.22,0,24.33-.06,6.8,0,6.82,0,6.82,6.6q0,48.15,0,96.29c0,6.07,2.43,8.44,8.47,8.43h10.22c5.67,0,8.22-2.46,8.23-8.16Q821.12,573.17,821.08,548.61ZM628.86,525.22H589.49c-6.42,0-10.33,3.67-10.35,10q-.06,30.86.07,61.71a10.79,10.79,0,0,0,1.54,5.39c3.53,5.67,16.18,8.4,21.81,4.76,3.9-2.53,6.42-5.55,6.22-11-.48-12.94-.07-25.91-.19-38.87,0-3.92,1.18-5.28,5.36-5.22,17.82.25,35.65,0,53.47.18,3.79,0,6.51-.9,8.23-4.52,2.72-5.72,2.39-11.44.5-17.25-1.41-4.35-4.41-5.39-8.89-5.27C654.47,525.44,641.66,525.22,628.86,525.22ZM731.64,536h0c0-20.41,0-40.82-.06-61.23,0-2-.26-5.09-1.43-5.71a27.24,27.24,0,0,0-17.73-2.74c-3.94.71-8,6.12-8,9.82q0,61,0,122c0,4.76,3.07,7.72,7.81,7.8,3.24,0,6.48,0,9.72,0,8.13,0,9.59-1.38,9.6-9.66Q731.69,566.09,731.64,536ZM633,495.17c13.61,0,27.21.07,40.81-.08a12.82,12.82,0,0,0,6.33-1.65c5.22-3.2,7.67-13.09,4.84-18.59-1.17-2.29-2.08-5.32-4-6.47a18.88,18.88,0,0,0-9.21-2.2c-26.71-.14-53.44.12-80.15-.2-5.8-.07-9.42,2.43-11.51,6.95-1.27,2.73-.93,6.29-1,9.48-.08,7.52,5.13,12.74,12.58,12.75C605.52,495.19,619.28,495.17,633,495.17ZM482.88,564.83c1.27-5.4,2.48-9.93,3.37-14.52,1.18-6.13-.89-10.37-6.48-13.95s-9.71-9-14.89-13a46.89,46.89,0,0,0-11.81-6.91c-5.31-2-11-3.2-16.56-4.52-1.54-.36-3.26.08-4.9.16.48,1.53.49,3.54,1.5,4.53C449.23,532.36,465.47,548,482.88,564.83Z"/><path d="M229.79,573.32c6.41,4.72,11.67,8.61,17,12.49,3.71,2.73,7.35,5.56,11.17,8.13,1.94,1.3,4.2,1,4.23-1.74.1-9.93-.13-19.86-.24-30.77,3.19-.71,7.64-1.45,12.07,1.65,7.52,5.29,15.17,10.41,23.51,16.11.12-1.81.69-3.31.22-4.35-3.63-8-8.06-15.74-10.88-24-.95-2.77,1.49-7.22,3.34-10.33,6.07-10.22,12.62-20.16,18.89-30.27.87-1.41,1.18-3.17,2.07-5.67,1.86,3,3.95,5.05,4.47,7.44,2.27,10.42,9,17.81,16.34,24.7,8.63,8.13,17.39,16.19,26.66,23.57a306.12,306.12,0,0,0,28.54,20.25c8.59,5.36,17.88,9.62,26.95,14.19,1.09.55,2.72,0,4.1,0-.51-1.4-.64-3.18-1.59-4.13-5-5-10.16-9.94-15.5-14.62-8.54-7.48-17.28-14.73-25.93-22.08,0-.49.07-1,.1-1.46a30.61,30.61,0,0,1,4.92.53c6,1.61,12,3.37,18,5.1,1.81.52,3.58,1.28,5.42,1.66,2.8.57,5.81,1.67,8.42,1.1,1.86-.4,3.68-3,4.55-5,.37-.85-1.44-3.37-2.81-4.1-5.9-3.14-12.06-5.77-18-8.82-12.34-6.31-24.89-12.36-33.6-23.8-2.23-2.93-1.81-5.65-.08-8.86,2.83-5.26,5.16-10.81,7.52-16.31s4.46-11.06,7.22-18c3.93,5.57,7.17,9.83,10,14.33,2.61,4.09,4.89,8.39,7.19,12.67,2.83,5.28,4.83,11.17,8.46,15.82,4.53,5.8,10.34,10.62,15.64,15.82a32.12,32.12,0,0,0,4.42,3.75c8.72,5.86,16.4,13.07,26.1,17.74,10.3,5,19.82,11.54,29.57,17.6a3.83,3.83,0,0,1,.92,3.63c-4.31,7.83-7.39,16.16-12.74,23.64-6.69,9.36-12.89,19-21.61,26.58a164.16,164.16,0,0,1-19.4,14,173.48,173.48,0,0,1-18,9.81c-9.06,4.38-18.86,6.25-28.54,8.79-12.92,3.39-25.6,1.92-38.32,1.92-6.78,0-13.56-2.92-20.34-4.54a9.41,9.41,0,0,0-2.3-.69c-8.07.34-14.49-4.48-21.32-7.4-17.72-7.59-32.14-20-44.59-34.51a195.28,195.28,0,0,1-16.29-22.54c-2.76-4.34-4.24-9.51-6.11-14.37C229.26,577,229.69,575.67,229.79,573.32Z"/><path d="M434.46,480.86c-7,3.08-13.07,6.38-19.53,8.44s-8.74-4.35-12-7.86c-8.46-9.05-16.45-18.55-24.86-27.66-.63-.68-3.58-.3-4.55.59a132.54,132.54,0,0,0-9.7,10.12c-5.69,6.38-11.35,12.79-16.89,19.29-2.48,2.92-4.16,6.75-7.09,9-4.33,3.37-9.36,5.88-14.31,8.33-.69.34-2.86-1.48-3.85-2.7-4.45-5.49-8.62-11.21-13.18-16.59-.64-.76-3.63-.77-4.35,0-6.33,6.67-12.79,13.27-18.41,20.51-6.5,8.37-14.54,14.18-24.7,16.48s-16,9.48-21.83,17c-4.66,6-9.44,12-15.06,19.19-1-5-2.63-8.95-2.54-12.88.31-14.22,1-28.43,2-42.62.23-3.41,1.72-6.83,3.07-10.06,3.49-8.3,7.38-16.42,10.82-24.74,4.8-11.64,13-20.91,21.39-29.81,8-8.49,17.08-16,27.91-21.09,4.26-2,8-5.17,12.09-7.5A46.26,46.26,0,0,1,306.9,403c6.15-2,12.28-4.32,18.59-5.74,4.83-1.09,9.94-1,14.92-1.45,5.75-.57,11.52-1.92,17.24-1.69A175.07,175.07,0,0,1,383,397c4.76.88,9.08,4.25,13.84,5.07,12.17,2.08,22.13,9,31.88,15.31,10.1,6.54,18.45,15.9,27.06,24.52a66.29,66.29,0,0,1,10.87,14.52c5.37,9.67,12.44,18.56,13.89,30.2.54,4.38,3,8.51,4.57,12.77a14.17,14.17,0,0,1,.93,3.21q1.35,12.5,2.54,25c.11,1.22-.29,2.49-.6,4.87C465.94,518.82,451.66,498.26,434.46,480.86Z"/><path d="M1485.31,518.66c-6.44,8.65-12.81,17.37-19.34,26-4,5.22-8.14,10.3-12.36,15.32-1.71,2-8.6,1.59-10.34-.6-8.83-11-17.57-22.16-26.36-33.22-2.28-2.86-4.67-5.63-7-8.44l-1.46.92c-.08,1.21-.23,2.43-.23,3.64q0,36.46,0,72.93c0,8-2.77,10.73-10.76,10.71-2.59,0-5.18,0-7.78,0-6,0-9.67-3.47-9.68-9.52q-.09-60.29,0-120.57c0-4.25,4.89-10,9-9.82,5.68.22,11.71-1.69,17,2.09,1.91,1.37,4.43,2.23,5.77,4,7.34,9.7,14.35,19.65,21.56,29.44,4,5.4,8.17,10.65,12.19,16,2.16,2.87,4.26,2.62,6.28,0,3.89-5,7.76-10.06,11.5-15.19,4.14-5.68,8-11.56,12.2-17.19,3.92-5.26,8.06-10.36,12.19-15.45a9.62,9.62,0,0,1,9.34-3.88c2.55.34,5.18,0,7.78.05,7.28.15,12.1,4.89,12.1,12.23q.06,58.83,0,117.66c0,6.86-3.5,10.11-10.36,10.11h-8.76c-6.71,0-10-3.27-10-10.06q0-36,0-72a41.67,41.67,0,0,0-.55-4.81Z"/><path d="M1290.69,552.64c6.17,9.58,11.74,18.14,17.22,26.74,3.58,5.64,7,11.37,10.57,17,2.54,4,.33,9.25-4.38,9.43-6.63.27-13.29.11-19.93-.13a5,5,0,0,1-3.44-2.09c-6.59-10.18-13-20.45-19.49-30.71-2.54-4-4.81-8.28-7.55-12.17a6.62,6.62,0,0,0-4.46-2.58c-8.42-.25-16.86,0-25.28-.16-4.06-.07-5.3,1.61-5.21,5.57.22,10.36.06,20.74.08,31.11,0,8.6-2.6,11.23-11.22,11.21h-8.27c-5.6,0-8.63-2.84-8.64-8.58q-.09-60.78,0-121.54c0-4.66,5.31-9.78,10.09-9.79,18.32,0,36.69-.88,54.94.21,16.12,1,32.42,4.2,42.39,18.9,8.17,12,11.53,25.32,6.86,40.2a42.14,42.14,0,0,1-15.89,22.5A89.78,89.78,0,0,1,1290.69,552.64Zm-40.17-21.48v0c5.35,0,10.78.6,16-.17s10.64-1.93,14.9-4.64c7.82-5,8.68-12.78,5.73-21.19-1.61-4.58-7.72-9.72-12.39-9.82-13.59-.29-27.19-.39-40.78-.57-3.55-.05-5.3,1.36-5.22,5.23.18,8.73.21,17.48,0,26.21-.09,3.63,1.3,5,4.76,5C1239.19,531.11,1244.86,531.16,1250.52,531.16Z"/><path d="M1546.86,536.45c0-19.45-.06-38.91,0-58.36,0-9.49,3-12.23,12.46-12.22,26.44,0,52.87-.07,79.3.11,3.22,0,6.41,1.49,9.63,2.19,3,.66,3.71,2.68,3.64,5.41-.09,3.24,0,6.49,0,9.73,0,8.46-3.2,11.57-11.78,11.57-20.27,0-40.55.07-60.82-.1-3.88,0-5.2,1.3-5.09,5.05.19,5.83.21,11.68,0,17.51-.14,3.78,1.19,5,5.06,5,18.33-.19,36.65-.09,55-.1,6.06,0,9.07,2.72,9.23,8.63.1,3.89-.07,7.78-.21,11.66-.16,4.55-2.77,6.74-7.15,6.91-3.4.13-6.81.11-10.21.11-15.41,0-30.81.12-46.22-.09-4-.05-5.6,1.13-5.47,5.2.2,6.48.21,13,0,19.45-.13,3.9,1.39,4.94,5.16,4.91,21.24-.16,42.49-.09,63.73-.09,6.35,0,8.78,2.41,8.81,8.69,0,3.73.08,7.46,0,11.19-.14,4.51-2.83,7-7.36,7.06q-44.76,0-89.52,0c-5.54,0-8-2.72-8-9.12-.06-20.1,0-40.2,0-60.3Z"/><path d="M1107.81,608.76c-13.6,1.49-26-3.56-37.26-10.16-9.31-5.47-17.62-13.11-22.47-23.43q-4.39-9.34-8.59-18.79a7.44,7.44,0,0,1-.22-2.89c0-10.1-.33-20.23.14-30.31.2-4.17,1.72-8.41,3.3-12.34a66.78,66.78,0,0,1,17.5-25.56,85.06,85.06,0,0,1,20-13.1c5.41-2.51,12-2.35,18-3.84,7.11-1.77,14.06-.39,21.14-.22,9.66.22,17.24,4.63,25.3,8.65,11.38,5.68,18.6,15.48,25.44,25.55,2,3,1.89,7.49,3.92,10.51,4.74,7,1.32,15.63,5,22.75a6.9,6.9,0,0,1,.44,3.81c-.85,6.37-.54,13.31-3.11,18.92-3.3,7.21-4.37,15.69-10.89,21.45-2.56,2.27-3.57,6.47-6.28,8.33-7.5,5.14-13.63,11.89-22.73,15.3C1127,606.9,1117.94,609.39,1107.81,608.76Zm43.3-70.34-1.26-.25c0-3.07.37-6.21-.11-9.21s-2-5.53-2.71-8.38c-2.57-10.67-10.07-17-19.15-21.87-4.49-2.38-9.22-4.18-14.65-3.51-3.82.48-7.87-.49-11.62.24a70.83,70.83,0,0,0-15.29,4.7,29.23,29.23,0,0,0-15.25,15.75c-2.34,5.41-5.39,10.4-5,16.65.29,4.19-.4,8.48.17,12.61.69,4.94,1,10.59,3.68,14.49,8.82,13,20.78,21.75,37.3,22.27,9.23.3,17.17-3.71,25.36-7.35,7.17-3.18,10.47-9.74,13.64-15.52C1149.54,553.08,1149.63,545.37,1151.11,538.42Z"/><path d="M922.61,535.91q0-29.67,0-59.33c0-6.95,3.09-10.5,10-10.53,27.57-.12,55.14-.24,82.71.1,7.22.09,12.72,4.62,11.78,12.32-.46,3.81,1.56,7.86-1.94,11.48-3.13,3.25-6.19,4.93-10.89,4.87-20-.28-39.9-.08-59.84-.25-3.67,0-4.95,1.24-4.87,4.77.14,6,0,12,0,18,0,6.76.87,7.63,7.52,7.64,15.24,0,30.49.21,45.73-.07,14.71-.27,16.17.83,15.41,15.8a25.41,25.41,0,0,1-2,7.21c-1.33,3.67-4.36,4.21-7.87,4.19-17.84-.09-35.68.06-53.52-.15-4-.05-5.42,1.06-5.36,5.15.19,13.62.09,27.24.05,40.86,0,5.45-2.57,7.92-8,7.92H930.88c-5.49,0-8.25-2.68-8.25-8.2Q922.59,566.8,922.61,535.91Z"/><path d="M821.08,548.61q0,24.55,0,49.11c0,5.7-2.56,8.18-8.23,8.16H802.62c-6,0-8.47-2.36-8.47-8.43q0-48.15,0-96.29c0-6.64,0-6.63-6.82-6.6-8.11,0-16.22,0-24.33.06-9.28,0-13.49-4.22-13.73-13.32-.14-5.56-.13-10.83,5.79-13.62a13.49,13.49,0,0,1,5.35-1.53c30.32-.1,60.65-.07,91-.09,9.3,0,15.4,4.43,14.56,14.28-.39,4.62-.1,9.14-4.52,11.83a14.92,14.92,0,0,1-7,2.37c-9.23.24-18.49.25-27.72-.07-4.28-.15-5.71,1.26-5.67,5.51C821.18,516.19,821.08,532.4,821.08,548.61Z"/><path d="M628.86,525.22c12.8,0,25.61.22,38.4-.11,4.48-.12,7.48.92,8.89,5.27,1.89,5.81,2.22,11.53-.5,17.25-1.72,3.62-4.44,4.55-8.23,4.52-17.82-.14-35.65.07-53.47-.18-4.18-.06-5.4,1.3-5.36,5.22.12,13-.29,25.93.19,38.87.2,5.43-2.32,8.45-6.22,11-5.63,3.64-18.28.91-21.81-4.76a10.79,10.79,0,0,1-1.54-5.39q-.16-30.85-.07-61.71c0-6.29,3.93-9.95,10.35-10Z"/><path d="M731.64,536q0,30.12,0,60.25c0,8.28-1.47,9.69-9.6,9.66-3.24,0-6.48,0-9.72,0-4.74-.08-7.81-3-7.81-7.8q0-61,0-122c0-3.7,4-9.11,8-9.82A27.24,27.24,0,0,1,730.17,469c1.17.62,1.42,3.74,1.43,5.71.1,20.41.06,40.82.06,61.23Z"/><path d="M633,495.17c-13.76,0-27.52,0-41.29,0-7.45,0-12.66-5.23-12.58-12.75,0-3.19-.31-6.75,1-9.48,2.09-4.52,5.71-7,11.51-6.95,26.71.32,53.44.06,80.15.2a18.88,18.88,0,0,1,9.21,2.2c1.94,1.15,2.85,4.18,4,6.47,2.83,5.5.38,15.39-4.84,18.59a12.82,12.82,0,0,1-6.33,1.65C660.25,495.24,646.65,495.17,633,495.17Z"/><path d="M482.88,564.83c-17.41-16.83-33.65-32.47-49.77-48.24-1-1-1-3-1.5-4.53,1.64-.08,3.36-.52,4.9-.16,5.57,1.32,11.25,2.47,16.56,4.52a46.89,46.89,0,0,1,11.81,6.91c5.18,4.08,9.4,9.51,14.89,13s7.66,7.82,6.48,13.95C485.36,554.9,484.15,559.43,482.88,564.83Z"/><path class="cls-1" d="M1250.52,531.16c-5.66,0-11.33,0-17,0-3.46,0-4.85-1.36-4.76-5,.22-8.73.19-17.48,0-26.21-.08-3.87,1.67-5.28,5.22-5.23,13.59.18,27.19.28,40.78.57,4.67.1,10.78,5.24,12.39,9.82,2.95,8.41,2.09,16.22-5.73,21.19-4.26,2.71-9.78,3.89-14.9,4.64s-10.66.17-16,.17Z"/><path class="cls-1" d="M1151.11,538.42c-1.48,7-1.57,14.66-4.84,20.62-3.17,5.78-6.47,12.34-13.64,15.52-8.19,3.64-16.13,7.65-25.36,7.35-16.52-.52-28.48-9.24-37.3-22.27-2.63-3.9-3-9.55-3.68-14.49-.57-4.13.12-8.42-.17-12.61-.44-6.25,2.61-11.24,5-16.65a29.23,29.23,0,0,1,15.25-15.75,70.83,70.83,0,0,1,15.29-4.7c3.75-.73,7.8.24,11.62-.24,5.43-.67,10.16,1.13,14.65,3.51,9.08,4.84,16.58,11.2,19.15,21.87.69,2.85,2.25,5.52,2.71,8.38s.11,6.14.11,9.21Z"/></svg>